<?xml version="1.0" encoding="UTF-8"?>
<svg id="Layer_1" data-name="Layer 1" xmlns="http://www.w3.org/2000/svg" viewBox="0 0 174.97 46.06">
  <g>
    <polygon class="cls-1" points="11.35 12.16 8.7 10.53 5.69 12.37 2.58 10.53 2.58 4.63 16.16 12.37 5.59 18.56 5.59 25.31 8.17 23.72 8.17 20.08 21.67 12.44 10.8 6.2 10.8 0 7.43 0 7.43 4.27 0 0 0 12.16 5.76 15.52 11.35 12.16"/>
    <polygon class="cls-1" points="19.17 18.6 16.59 18.71 18.31 20.44 16.1 21.77 16.12 21.78 2.76 29.7 2.76 16.47 0 14.95 0 34.26 7.43 30.03 7.43 34.33 10.8 34.33 10.8 28.11 20.47 22.6 21.96 24.09 23.12 18.44 19.17 18.6"/>
  </g>
  <text class="cls-2" transform="translate(32.15 28.81)"><tspan x="0" y="0">BServices</tspan></text>
</svg>