<?xml version="1.0" standalone="no"?>
<!DOCTYPE svg PUBLIC "-//W3C//DTD SVG 20010904//EN"
 "http://www.w3.org/TR/2001/REC-SVG-20010904/DTD/svg10.dtd">
<svg version="1.0" xmlns="http://www.w3.org/2000/svg"
 width="184.000000pt" height="39.000000pt" viewBox="0 0 184.000000 39.000000"
 preserveAspectRatio="xMidYMid meet">

<g transform="translate(0.000000,39.000000) scale(0.100000,-0.100000)"
fill="#000000" stroke="none">
<path d="M140 361 c0 -25 -8 -26 -34 -6 -36 27 -46 19 -46 -39 0 -49 3 -57 30
-76 28 -20 31 -20 60 -5 34 18 31 40 -5 31 -34 -9 -55 3 -55 30 0 13 3 24 8
24 4 0 33 -15 66 -34 l59 -33 -52 -29 c-48 -27 -51 -32 -51 -68 0 -33 2 -37
15 -26 8 7 15 20 15 29 0 10 24 30 60 49 33 18 62 37 64 41 3 5 -17 20 -44 35
-41 22 -49 32 -52 59 -4 37 -38 53 -38 18z"/>
<path d="M1253 313 c-18 -6 -16 -42 2 -49 16 -6 45 12 45 27 0 12 -33 27 -47
22z"/>
<path d="M407 283 c-4 -3 -7 -49 -7 -100 l0 -94 72 3 c66 3 74 5 85 28 10 20
9 29 -3 48 -12 18 -13 27 -5 35 18 18 12 55 -11 71 -22 16 -118 22 -131 9z
m101 -55 c3 -13 -3 -18 -22 -18 -20 0 -26 5 -26 21 0 15 5 20 22 17 13 -2 24
-11 26 -20z m2 -78 c0 -15 -7 -20 -25 -20 -18 0 -25 5 -25 20 0 15 7 20 25 20
18 0 25 -5 25 -20z"/>
<path d="M612 274 c-17 -12 -22 -24 -20 -46 3 -31 8 -36 62 -60 35 -16 39 -32
9 -36 -13 -2 -23 1 -23 7 0 6 -11 11 -25 11 -30 0 -32 -20 -5 -45 41 -37 130
-10 130 39 0 23 -28 50 -61 61 -38 13 -53 45 -21 45 11 0 22 -5 24 -11 2 -6
17 -9 33 -7 l30 3 -27 28 c-31 31 -72 35 -106 11z"/>
<path d="M786 227 c-45 -45 -32 -116 24 -136 33 -11 55 -7 83 17 30 26 20 34
-33 27 -32 -4 -50 -3 -50 4 0 5 24 11 53 13 51 3 52 4 50 32 -3 38 -21 55 -65
63 -30 4 -41 1 -62 -20z m74 -32 c11 -13 8 -15 -19 -15 -30 0 -39 9 -24 23 11
11 30 8 43 -8z"/>
<path d="M940 170 c0 -79 0 -80 25 -80 23 0 25 4 25 45 0 39 4 47 25 57 16 7
25 19 25 35 0 26 -3 27 -31 13 -13 -7 -19 -7 -19 0 0 5 -11 10 -25 10 -25 0
-25 -1 -25 -80z"/>
<path d="M1054 233 c4 -10 17 -46 29 -80 21 -59 24 -63 53 -63 30 0 33 3 58
74 14 41 26 77 26 80 0 3 -11 6 -24 6 -21 0 -27 -8 -42 -57 l-17 -58 -17 55
c-15 48 -21 55 -45 58 -23 3 -27 1 -21 -15z"/>
<path d="M1240 170 c0 -79 0 -80 25 -80 25 0 25 1 25 80 0 79 0 80 -25 80 -25
0 -25 -1 -25 -80z"/>
<path d="M1344 226 c-35 -29 -37 -87 -5 -119 29 -30 88 -28 112 2 11 13 19 27
19 32 0 13 -44 11 -57 -2 -21 -21 -45 -2 -41 33 3 35 2 35 71 21 34 -7 35 9 1
36 -35 27 -67 26 -100 -3z"/>
<path d="M1516 227 c-45 -45 -32 -116 24 -136 33 -11 55 -7 83 17 30 26 20 34
-33 27 -32 -4 -50 -3 -50 4 0 5 24 11 53 13 51 3 52 4 50 32 -3 38 -21 55 -65
63 -30 4 -41 1 -62 -20z m74 -32 c11 -13 8 -15 -19 -15 -30 0 -39 9 -24 23 11
11 30 8 43 -8z"/>
<path d="M1692 234 c-12 -8 -22 -24 -22 -34 0 -21 36 -50 62 -50 10 0 18 -7
18 -15 0 -17 -21 -20 -37 -4 -6 6 -21 9 -33 7 -22 -3 -22 -3 -3 -26 13 -17 30
-24 55 -25 44 -1 68 17 68 50 0 19 -8 28 -40 40 -22 9 -40 20 -40 25 0 11 27
10 35 -2 9 -15 45 -12 45 4 0 19 -38 46 -65 46 -11 0 -31 -7 -43 -16z"/>
<path d="M60 131 c0 -97 6 -106 46 -76 26 20 34 19 34 -6 0 -36 35 -19 38 19
3 26 11 36 45 54 23 12 47 21 53 20 7 -1 14 9 16 23 5 23 2 25 -28 25 -21 0
-33 -5 -32 -12 2 -6 -26 -29 -62 -50 l-65 -38 -5 62 c-4 49 -9 64 -22 66 -16
3 -18 -6 -18 -87z"/>
</g>
</svg>
